#Comment line ignore any data following # character 
#Hierarchical Translation and Rotation (.htr) file 
[Header]	
#Header keywords are followed by a single value 
FileType HTR		#Single word string
DataType HTRS		#Translation followed by rotation and scale data
FileVersion 1		#integer
NumSegments 84		#integer
NumFrames 2		#integer
DataFrameRate 30		#integer, data frame rate in this file
EulerRotationOrder ZYX
CalibrationUnits mm
RotationUnits Degrees
GlobalAxisofGravity Y
BoneLengthAxis Y
ScaleFactor 1.00
[SegmentNames&Hierarchy]
#CHILD	PARENT
MASTER GLOBAL
root MASTER
chest root
L_mid_tent01 root
R_mid_tent01 root
spine01 root
Bip01_Neck chest
L_humerus chest
R_humerus chest
weapon_bone chest
Bip01_Head Bip01_Neck
eye_left_bone Bip01_Head
eye_right_bone Bip01_Head
L_forearm L_humerus
L_front_hand L_forearm
L_weapon_bone L_forearm
L_front_hand01_01 L_front_hand
L_front_hand02_01 L_front_hand
L_front_hand03_01 L_front_hand
L_front_hand01_02 L_front_hand01_01
L_front_hand02_02 L_front_hand02_01
L_front_hand03_02 L_front_hand03_01
R_forearm R_humerus
R_front_hand R_forearm
R_weapon_bone R_forearm
R_front_hand01_01 R_front_hand
R_front_hand02_01 R_front_hand
R_front_hand03_01 R_front_hand
R_front_hand01_02 R_front_hand01_01
R_front_hand02_02 R_front_hand02_01
R_front_hand03_02 R_front_hand03_01
null_rope01_connect L_mid_tent01
Rope1_Seg01 null_rope01_connect
Rope1_Seg02 Rope1_Seg01
Rope1_Seg03 Rope1_Seg02
Rope1_Seg04 Rope1_Seg03
Rope1_Seg05 Rope1_Seg04
Rope1_Seg06 Rope1_Seg05
Rope1_Seg07 Rope1_Seg06
Rope1_Seg09 Rope1_Seg07
L_mid_hand01 Rope1_Seg09
L_mid_hand02 Rope1_Seg09
L_mid_hand03 Rope1_Seg09
null_rope02_connect R_mid_tent01
Rope2_Seg01 null_rope02_connect
Rope2_Seg02 Rope2_Seg01
Rope2_Seg03 Rope2_Seg02
Rope2_Seg04 Rope2_Seg03
Rope2_Seg05 Rope2_Seg04
Rope2_Seg06 Rope2_Seg05
Rope2_Seg07 Rope2_Seg06
Rope2_Seg09 Rope2_Seg07
R_mid_hand01 Rope2_Seg09
R_mid_hand02 Rope2_Seg09
R_mid_hand03 Rope2_Seg09
spine02 spine01
spine03 spine02
pelvis spine03
null_rope03_connect pelvis
null_rope04_connect pelvis
Rope3_Seg01 null_rope03_connect
Rope3_Seg02 Rope3_Seg01
Rope3_Seg03 Rope3_Seg02
Rope3_Seg04 Rope3_Seg03
Rope3_Seg05 Rope3_Seg04
Rope3_Seg06 Rope3_Seg05
Rope3_Seg07 Rope3_Seg06
Rope3_Seg08 Rope3_Seg07
Rope3_Seg09 Rope3_Seg08
R_rear_hand01 Rope3_Seg09
R_rear_hand02 Rope3_Seg09
R_rear_hand03 Rope3_Seg09
Rope4_Seg01 null_rope04_connect
Rope4_Seg02 Rope4_Seg01
Rope4_Seg03 Rope4_Seg02
Rope4_Seg04 Rope4_Seg03
Rope4_Seg05 Rope4_Seg04
Rope4_Seg06 Rope4_Seg05
Rope4_Seg07 Rope4_Seg06
Rope4_Seg08 Rope4_Seg07
Rope4_Seg09 Rope4_Seg08
L_rear_hand01 Rope4_Seg09
L_rear_hand02 Rope4_Seg09
L_rear_hand03 Rope4_Seg09
[BasePosition]
#SegmentName Tx, Ty, Tz, Rx, Ry, Rz, BoneLength
MASTER 0.000000 0.000000 0.000000 -90.000000 0.000000 0.000000 10.000000 
root 0.000000 0.000000 0.000000 0.000000 0.000000 0.000000 10.000000 
chest 0.000000 0.000000 0.000000 0.000000 0.000000 0.000000 10.000000 
L_mid_tent01 0.000000 0.000000 0.000000 0.000000 0.000000 0.000000 10.000000 
R_mid_tent01 0.000000 0.000000 0.000000 0.000000 0.000000 0.000000 10.000000 
spine01 0.000000 0.000000 0.000000 0.000000 0.000000 0.000000 10.000000 
Bip01_Neck 0.000000 0.000000 0.000000 0.000000 0.000000 0.000000 10.000000 
L_humerus 0.000000 0.000000 0.000000 0.000000 0.000000 0.000000 10.000000 
R_humerus 0.000000 0.000000 0.000000 0.000000 0.000000 0.000000 10.000000 
weapon_bone 0.000000 0.000000 0.000000 0.000000 0.000000 0.000000 10.000000 
Bip01_Head 0.000000 0.000000 0.000000 0.000000 0.000000 0.000000 10.000000 
eye_left_bone 0.000000 0.000000 0.000000 0.000000 0.000000 0.000000 10.000000 
eye_right_bone 0.000000 0.000000 0.000000 0.000000 0.000000 0.000000 10.000000 
L_forearm 0.000000 0.000000 0.000000 0.000000 0.000000 0.000000 10.000000 
L_front_hand 0.000000 0.000000 0.000000 0.000000 0.000000 0.000000 10.000000 
L_weapon_bone 0.000000 0.000000 0.000000 0.000000 0.000000 0.000000 10.000000 
L_front_hand01_01 0.000000 0.000000 0.000000 0.000000 0.000000 0.000000 10.000000 
L_front_hand02_01 0.000000 0.000000 0.000000 0.000000 0.000000 0.000000 10.000000 
L_front_hand03_01 0.000000 0.000000 0.000000 0.000000 0.000000 0.000000 10.000000 
L_front_hand01_02 0.000000 0.000000 0.000000 0.000000 0.000000 0.000000 10.000000 
L_front_hand02_02 0.000000 0.000000 0.000000 0.000000 0.000000 0.000000 10.000000 
L_front_hand03_02 0.000000 0.000000 0.000000 0.000000 0.000000 0.000000 10.000000 
R_forearm 0.000000 0.000000 0.000000 0.000000 0.000000 0.000000 10.000000 
R_front_hand 0.000000 0.000000 0.000000 0.000000 0.000000 0.000000 10.000000 
R_weapon_bone 0.000000 0.000000 0.000000 0.000000 0.000000 0.000000 10.000000 
R_front_hand01_01 0.000000 0.000000 0.000000 0.000000 0.000000 0.000000 10.000000 
R_front_hand02_01 0.000000 0.000000 0.000000 0.000000 0.000000 0.000000 10.000000 
R_front_hand03_01 0.000000 0.000000 0.000000 0.000000 0.000000 0.000000 10.000000 
R_front_hand01_02 0.000000 0.000000 0.000000 0.000000 0.000000 0.000000 10.000000 
R_front_hand02_02 0.000000 0.000000 0.000000 0.000000 0.000000 0.000000 10.000000 
R_front_hand03_02 0.000000 0.000000 0.000000 0.000000 0.000000 0.000000 10.000000 
null_rope01_connect 0.000000 0.000000 0.000000 0.000000 0.000000 0.000000 10.000000 
Rope1_Seg01 0.000000 0.000000 0.000000 0.000000 0.000000 0.000000 10.000000 
Rope1_Seg02 0.000000 0.000000 0.000000 0.000000 0.000000 0.000000 10.000000 
Rope1_Seg03 0.000000 0.000000 0.000000 0.000000 0.000000 0.000000 10.000000 
Rope1_Seg04 0.000000 0.000000 0.000000 0.000000 0.000000 0.000000 10.000000 
Rope1_Seg05 0.000000 0.000000 0.000000 0.000000 0.000000 0.000000 10.000000 
Rope1_Seg06 0.000000 0.000000 0.000000 0.000000 0.000000 0.000000 10.000000 
Rope1_Seg07 0.000000 0.000000 0.000000 0.000000 0.000000 0.000000 10.000000 
Rope1_Seg09 0.000000 0.000000 0.000000 0.000000 0.000000 0.000000 10.000000 
L_mid_hand01 0.000000 0.000000 0.000000 0.000000 0.000000 0.000000 10.000000 
L_mid_hand02 0.000000 0.000000 0.000000 0.000000 0.000000 0.000000 10.000000 
L_mid_hand03 0.000000 0.000000 0.000000 0.000000 0.000000 0.000000 10.000000 
null_rope02_connect 0.000000 0.000000 0.000000 0.000000 0.000000 0.000000 10.000000 
Rope2_Seg01 0.000000 0.000000 0.000000 0.000000 0.000000 0.000000 10.000000 
Rope2_Seg02 0.000000 0.000000 0.000000 0.000000 0.000000 0.000000 10.000000 
Rope2_Seg03 0.000000 0.000000 0.000000 0.000000 0.000000 0.000000 10.000000 
Rope2_Seg04 0.000000 0.000000 0.000000 0.000000 0.000000 0.000000 10.000000 
Rope2_Seg05 0.000000 0.000000 0.000000 0.000000 0.000000 0.000000 10.000000 
Rope2_Seg06 0.000000 0.000000 0.000000 0.000000 0.000000 0.000000 10.000000 
Rope2_Seg07 0.000000 0.000000 0.000000 0.000000 0.000000 0.000000 10.000000 
Rope2_Seg09 0.000000 0.000000 0.000000 0.000000 0.000000 0.000000 10.000000 
R_mid_hand01 0.000000 0.000000 0.000000 0.000000 0.000000 0.000000 10.000000 
R_mid_hand02 0.000000 0.000000 0.000000 0.000000 0.000000 0.000000 10.000000 
R_mid_hand03 0.000000 0.000000 0.000000 0.000000 0.000000 0.000000 10.000000 
spine02 0.000000 0.000000 0.000000 0.000000 0.000000 0.000000 10.000000 
spine03 0.000000 0.000000 0.000000 0.000000 0.000000 0.000000 10.000000 
pelvis 0.000000 0.000000 0.000000 0.000000 0.000000 0.000000 10.000000 
null_rope03_connect 0.000000 0.000000 0.000000 0.000000 0.000000 0.000000 10.000000 
null_rope04_connect 0.000000 0.000000 0.000000 0.000000 0.000000 0.000000 10.000000 
Rope3_Seg01 0.000000 0.000000 0.000000 0.000000 0.000000 0.000000 10.000000 
Rope3_Seg02 0.000000 0.000000 0.000000 0.000000 0.000000 0.000000 10.000000 
Rope3_Seg03 0.000000 0.000000 0.000000 0.000000 0.000000 0.000000 10.000000 
Rope3_Seg04 0.000000 0.000000 0.000000 0.000000 0.000000 0.000000 10.000000 
Rope3_Seg05 0.000000 0.000000 0.000000 0.000000 0.000000 0.000000 10.000000 
Rope3_Seg06 0.000000 0.000000 0.000000 0.000000 0.000000 0.000000 10.000000 
Rope3_Seg07 0.000000 0.000000 0.000000 0.000000 0.000000 0.000000 10.000000 
Rope3_Seg08 0.000000 0.000000 0.000000 0.000000 0.000000 0.000000 10.000000 
Rope3_Seg09 0.000000 0.000000 0.000000 0.000000 0.000000 0.000000 10.000000 
R_rear_hand01 0.000000 0.000000 0.000000 0.000000 0.000000 0.000000 10.000000 
R_rear_hand02 0.000000 0.000000 0.000000 0.000000 0.000000 0.000000 10.000000 
R_rear_hand03 0.000000 0.000000 0.000000 0.000000 0.000000 0.000000 10.000000 
Rope4_Seg01 0.000000 0.000000 0.000000 0.000000 0.000000 0.000000 10.000000 
Rope4_Seg02 0.000000 0.000000 0.000000 0.000000 0.000000 0.000000 10.000000 
Rope4_Seg03 0.000000 0.000000 0.000000 0.000000 0.000000 0.000000 10.000000 
Rope4_Seg04 0.000000 0.000000 0.000000 0.000000 0.000000 0.000000 10.000000 
Rope4_Seg05 0.000000 0.000000 0.000000 0.000000 0.000000 0.000000 10.000000 
Rope4_Seg06 0.000000 0.000000 0.000000 0.000000 0.000000 0.000000 10.000000 
Rope4_Seg07 0.000000 0.000000 0.000000 0.000000 0.000000 0.000000 10.000000 
Rope4_Seg08 0.000000 0.000000 0.000000 0.000000 0.000000 0.000000 10.000000 
Rope4_Seg09 0.000000 0.000000 0.000000 0.000000 0.000000 0.000000 10.000000 
L_rear_hand01 0.000000 0.000000 0.000000 0.000000 0.000000 0.000000 10.000000 
L_rear_hand02 0.000000 0.000000 0.000000 0.000000 0.000000 0.000000 10.000000 
L_rear_hand03 0.000000 0.000000 0.000000 0.000000 0.000000 0.000000 10.000000 
#Beginning of Data. Separated by tabs
#Fr	Tx	Ty	Tz	Rx	Ry	Rz	SF
[MASTER]
76 2323.235107 3002.579346 1666.310669 0.001660 0.001660 0.001660 4146.021484
77 2128.417480 3215.052246 1547.720947 0.001660 0.001660 0.001660 4154.775879
[root]
76 72.061920 -123.720207 378.048431 -14.035782 7.015516 -91.366821 404.252686
77 168.725845 -124.368866 502.866638 -17.727219 6.476638 -88.000877 544.803528
[chest]
76 -84.512650 -34.090519 0.000000 23.093414 32.471519 142.735413 91.129311
77 -84.512650 -34.090519 0.000000 22.570877 29.239719 143.962387 91.129311
[L_mid_tent01]
76 27.298941 22.179220 -249.918701 -9.130099 16.388895 56.702930 252.381668
77 27.298939 22.179222 -249.918701 -11.425529 14.722951 50.213890 252.381668
[R_mid_tent01]
76 23.228794 24.509907 226.238495 147.785172 -51.786900 55.238266 228.744751
77 23.228794 24.509907 226.238495 144.984406 -56.856228 50.213398 228.744751
[spine01]
76 -0.361383 -0.195265 0.000000 0.001835 0.001464 12.837886 0.410763
77 -0.361383 -0.195265 0.000000 0.001813 0.001491 11.152053 0.410763
[Bip01_Neck]
76 165.484543 71.581718 0.000119 176.643677 -1.657967 43.431911 180.302734
77 165.484543 71.581718 0.000119 176.643677 -1.657967 43.431911 180.302734
[L_humerus]
76 -13.983130 -135.272980 -120.471481 165.715836 28.026569 -91.041023 181.680161
77 -13.983130 -135.272980 -120.471481 169.758621 12.115689 -89.775070 181.680161
[R_humerus]
76 -13.983309 -135.273102 125.287651 -176.748123 -15.779702 -86.597824 184.909012
77 -13.983309 -135.273102 125.287651 -176.958221 -4.717149 -85.866280 184.909012
[weapon_bone]
76 235.964890 -300.705902 0.000000 0.000000 -89.951546 -128.212341 382.234833
77 235.964890 -300.705902 0.000000 0.000000 -89.951546 -128.212341 382.234833
[Bip01_Head]
76 201.671127 167.783646 47.288235 33.377853 0.905840 -39.344398 266.568512
77 202.007721 168.296341 46.273228 30.074854 1.006621 -39.727886 266.968140
[eye_left_bone]
76 -24.626970 125.451866 -64.772606 0.000000 -90.000000 -99.840431 143.318359
77 -24.626970 125.451866 -64.772606 0.000000 -90.000000 -99.840431 143.318359
[eye_right_bone]
76 -24.626970 125.451866 64.327362 0.000000 -89.965736 80.156380 143.117676
77 -24.626970 125.451866 64.327362 0.000000 -89.965736 80.156380 143.117676
[L_forearm]
76 322.776093 0.000000 -0.000119 0.000195 -0.002339 -99.540764 322.776093
77 322.776093 0.000000 -0.000119 0.000204 -0.002339 -99.966873 322.776093
[L_front_hand]
76 241.149185 -0.042021 -3.300071 60.145348 -2.204067 -5.138963 241.171753
77 241.149185 -0.042021 -3.300071 60.145355 -2.204067 -5.138964 241.171753
[L_weapon_bone]
76 156.183838 0.000000 0.000000 0.000014 0.000007 0.000001 156.183838
77 156.183838 0.000000 0.000000 0.000014 0.000007 0.000001 156.183838
[L_front_hand01_01]
76 86.095154 20.947098 -0.655860 -0.366594 -0.477154 75.385574 88.609184
77 86.095154 20.947098 -0.655860 -0.366594 -0.477154 75.385574 88.609184
[L_front_hand02_01]
76 86.935165 -11.437475 24.513514 154.399796 -59.883835 -61.369587 91.046425
77 86.935165 -11.437475 24.513514 154.399796 -59.883835 -61.369587 91.046425
[L_front_hand03_01]
76 86.637497 -14.123976 -20.424902 -153.913849 58.118122 -62.702866 90.126129
77 86.637497 -14.123976 -20.424902 -153.913849 58.118122 -62.702866 90.126129
[L_front_hand01_02]
76 71.020905 -0.000179 0.000030 0.000334 -0.002323 -106.379684 71.020905
77 71.020905 -0.000179 0.000030 0.000334 -0.002323 -106.379684 71.020905
[L_front_hand02_02]
76 71.020927 -0.000119 0.000060 0.000334 -0.002323 -106.379684 71.020927
77 71.020927 -0.000119 0.000060 0.000334 -0.002323 -106.379684 71.020927
[L_front_hand03_02]
76 71.020905 -0.000060 0.000060 0.000334 -0.002323 -106.379684 71.020905
77 71.020905 -0.000060 0.000060 0.000334 -0.002323 -106.379684 71.020905
[R_forearm]
76 322.776428 -0.000060 0.000030 0.201746 0.066259 -108.687500 322.776428
77 322.776428 -0.000060 0.000030 0.201769 0.066185 -108.645744 322.776428
[R_front_hand]
76 238.847015 -0.006795 2.210259 -2.635298 -10.645461 -26.312506 238.857239
77 238.847015 -0.006795 2.210259 -2.635298 -10.645461 -26.312506 238.857239
[R_weapon_bone]
76 155.664093 0.002503 -0.000030 0.003487 0.001180 -90.988930 155.664078
77 155.664093 0.002503 -0.000030 0.003487 0.001180 -90.988930 155.664078
[R_front_hand01_01]
76 87.624611 14.231146 22.918642 -154.633499 -59.950619 61.746044 91.683487
77 87.624611 14.231146 22.918642 -154.633514 -59.950634 61.746063 91.683487
[R_front_hand02_01]
76 89.356956 14.367283 -19.491137 154.602661 58.302849 63.744389 92.579636
77 89.356956 14.367283 -19.491137 154.602661 58.302849 63.744389 92.579636
[R_front_hand03_01]
76 87.286232 -22.307278 -0.143439 0.162155 -0.423168 -75.767921 90.091743
77 87.286232 -22.307278 -0.143439 0.162155 -0.423168 -75.767921 90.091743
[R_front_hand01_02]
76 71.020905 0.000060 0.000119 0.002323 -0.000334 106.381714 71.020905
77 71.020905 0.000060 0.000119 0.002323 -0.000334 106.381714 71.020905
[R_front_hand02_02]
76 71.020844 -0.000030 -0.000119 0.002323 -0.000334 106.381714 71.020836
77 71.020844 -0.000030 -0.000119 0.002323 -0.000334 106.381714 71.020836
[R_front_hand03_02]
76 71.020905 0.000000 0.000030 0.002323 -0.000334 106.381714 71.020905
77 71.020905 0.000000 0.000030 0.002323 -0.000334 106.381714 71.020905
[null_rope01_connect]
76 328.732483 0.000000 -0.000238 -9.258693 -32.482807 34.133167 328.732483
77 328.732483 0.000000 -0.000238 -5.517987 -36.495579 36.068031 328.732483
[Rope1_Seg01]
76 -0.000029 -0.000238 0.000038 -57.972523 61.326111 117.912659 0.000243
77 -0.000029 -0.000241 0.000037 -141.938416 74.192757 51.368473 0.000246
[Rope1_Seg02]
76 139.999863 -0.000179 0.000000 -4.604900 12.713855 -9.850085 139.999863
77 139.999863 -0.000179 0.000000 -10.447601 13.402834 -0.149601 139.999863
[Rope1_Seg03]
76 139.999924 0.000060 -0.000060 -22.182344 19.557226 -13.648092 139.999924
77 139.999924 0.000060 -0.000060 -22.528919 18.906769 3.093868 139.999924
[Rope1_Seg04]
76 139.999924 -0.000060 -0.000119 -99.985069 21.497427 -5.230097 139.999924
77 139.999924 -0.000060 -0.000119 -25.759775 16.133978 8.362239 139.999924
[Rope1_Seg05]
76 139.999832 0.000119 -0.000060 -23.914375 1.338289 13.701436 139.999832
77 139.999832 0.000119 -0.000060 -18.201010 7.494515 17.864737 139.999832
[Rope1_Seg06]
76 139.999954 0.000119 -0.000060 -10.908441 -5.126870 17.919401 139.999954
77 139.999954 0.000119 -0.000060 -10.526148 -1.711109 28.132938 139.999954
[Rope1_Seg07]
76 139.999985 0.000060 0.000000 -5.529866 -9.419957 19.518663 139.999985
77 139.999985 0.000060 0.000000 -2.464700 -3.423192 16.648088 139.999985
[Rope1_Seg09]
76 121.602913 0.000119 -0.000089 -89.793175 -1.359789 0.847147 121.602913
77 121.602913 0.000119 -0.000089 -89.793175 -1.359789 0.847147 121.602913
[L_mid_hand01]
76 103.859421 1.038730 8.195221 130.544373 -67.584534 -38.866943 104.187431
77 103.859421 1.038730 8.195221 130.544373 -67.584534 -38.866943 104.187431
[L_mid_hand02]
76 105.572853 -4.139662 -10.864139 -168.923172 43.409309 -73.498886 106.211075
77 105.572853 -4.139662 -10.864139 -168.923172 43.409309 -73.498886 106.211075
[L_mid_hand03]
76 104.641464 17.579376 -3.913581 -6.012626 17.808172 74.893661 106.179977
77 104.641464 17.579376 -3.913581 -6.012627 17.808174 74.893669 106.179977
[null_rope02_connect]
76 328.732849 0.000179 -0.000119 -131.661575 -5.181339 -47.471928 328.732849
77 328.732849 0.000179 -0.000119 -124.878403 -2.550313 -47.921215 328.732849
[Rope2_Seg01]
76 0.000014 0.000267 0.000000 101.737808 -59.729111 50.703495 0.000267
77 0.000014 0.000269 0.000000 109.262787 -62.641277 42.905106 0.000269
[Rope2_Seg02]
76 139.999741 -0.000060 -0.000119 -4.019141 6.669797 -35.220188 139.999756
77 139.999741 -0.000060 -0.000119 -4.110133 -16.229898 -2.287891 139.999756
[Rope2_Seg03]
76 140.000107 0.000030 0.000000 1.195134 2.223057 -9.324965 140.000107
77 140.000107 0.000030 0.000000 -7.941810 -11.283927 -7.798896 140.000107
[Rope2_Seg04]
76 139.999802 0.000000 -0.000060 1.683019 -8.010190 -4.664048 139.999802
77 139.999802 0.000000 -0.000060 -12.588198 -23.207758 1.545245 139.999802
[Rope2_Seg05]
76 139.999985 -0.000060 0.000119 1.814141 -20.224077 -10.080576 139.999985
77 139.999985 -0.000060 0.000119 -86.371025 -31.978001 1.824671 139.999985
[Rope2_Seg06]
76 139.999893 -0.000030 -0.000119 -2.702658 -20.047016 -11.857028 139.999893
77 139.999893 -0.000030 -0.000119 -37.601219 -0.774171 -13.371531 139.999893
[Rope2_Seg07]
76 139.999893 0.000060 -0.000060 -2.288454 -5.751149 -3.925683 139.999893
77 139.999893 0.000060 -0.000060 -7.802243 3.927086 -5.764049 139.999893
[Rope2_Seg09]
76 121.338966 0.000089 -0.000060 33.793236 -1.359788 -0.847141 121.338966
77 121.338966 0.000089 -0.000060 33.793236 -1.359788 -0.847141 121.338966
[R_mid_hand01]
76 104.680779 11.144459 -10.335981 -16.212063 45.237247 70.462852 105.778534
77 104.680779 11.144459 -10.335981 -16.212063 45.237247 70.462852 105.778534
[R_mid_hand02]
76 104.070427 2.443552 8.231699 49.067368 -67.749771 39.286453 104.424065
77 104.070427 2.443552 8.231699 49.067368 -67.749771 39.286453 104.424065
[R_mid_hand03]
76 106.028137 -11.221827 -5.996406 -177.101105 15.551026 -76.585571 106.788818
77 106.028137 -11.221827 -5.996406 -177.101105 15.551026 -76.585571 106.788818
[spine02]
76 129.756927 0.001550 0.000119 0.420426 -4.038393 -13.800654 129.756927
77 129.756927 0.001550 0.000119 0.416016 -4.038882 -13.739898 129.756927
[spine03]
76 78.614159 0.081482 -4.899021 1.934037 3.813166 17.029814 78.766701
77 78.614166 0.081482 -4.899022 1.931531 3.814249 16.992081 78.766708
[pelvis]
76 169.435242 0.051022 0.000000 0.010082 -0.190987 -8.011947 169.435257
77 169.435242 0.051022 0.000000 0.012263 -0.190840 -8.334308 169.435257
[null_rope03_connect]
76 -1.257226 -2.466202 137.391083 -7.288719 -12.673826 83.336891 137.418976
77 -1.257226 -2.466202 137.391083 -5.810093 -16.750710 81.855034 137.418976
[null_rope04_connect]
76 -1.259640 -2.480268 -137.844437 -7.288719 -12.673826 83.336891 137.872513
77 -1.259640 -2.480268 -137.844437 -5.810093 -16.750710 81.855034 137.872513
[Rope3_Seg01]
76 -0.000033 -0.000238 0.000000 26.294849 -36.375988 -88.900536 0.000241
77 -0.000034 -0.000241 0.000000 21.575399 -26.423386 -84.950211 0.000243
[Rope3_Seg02]
76 139.999924 -0.000119 0.000060 1.205491 -2.251362 32.513988 139.999924
77 139.999924 -0.000119 0.000060 3.365725 13.948907 26.995565 139.999924
[Rope3_Seg03]
76 139.999924 -0.000119 0.000119 -5.819847 0.406112 28.271873 139.999924
77 139.999924 -0.000119 0.000119 3.611882 12.723186 11.355202 139.999924
[Rope3_Seg04]
76 139.999924 0.000119 0.000000 -13.096210 -6.627695 17.704077 139.999924
77 139.999924 0.000119 0.000000 -10.474277 -9.206731 10.899980 139.999924
[Rope3_Seg05]
76 139.999924 -0.000238 0.000060 -10.474301 -7.263695 8.772006 139.999924
77 139.999924 -0.000238 0.000060 -9.696933 -13.009212 5.557043 139.999924
[Rope3_Seg06]
76 139.999893 -0.000119 -0.000060 -5.245611 -4.139637 4.140672 139.999893
77 139.999893 -0.000119 -0.000060 -2.737017 -4.823125 1.894687 139.999893
[Rope3_Seg07]
76 139.999771 0.000060 -0.000119 -3.268500 -2.942492 2.456552 139.999771
77 139.999771 0.000060 -0.000119 -1.328715 -2.973234 1.119752 139.999771
[Rope3_Seg08]
76 139.999985 -0.000060 0.000000 -1.747192 -1.857120 1.380525 139.999985
77 139.999985 -0.000060 0.000000 -0.542877 -1.830269 0.643499 139.999985
[Rope3_Seg09]
76 90.185997 -0.000179 -0.000060 89.793228 -1.359877 -0.847183 90.185997
77 90.185997 -0.000179 -0.000060 89.793228 -1.359877 -0.847183 90.185997
[R_rear_hand01]
76 103.366196 -6.073594 -10.757982 -177.714203 24.565960 -73.910950 104.101845
77 103.366196 -6.073594 -10.757982 -177.714203 24.565960 -73.910950 104.101845
[R_rear_hand02]
76 100.509819 12.039542 -7.992327 -12.874829 36.868488 72.167213 101.543350
77 100.509819 12.039542 -7.992327 -12.874829 36.868488 72.167213 101.543350
[R_rear_hand03]
76 101.539970 5.215704 5.435467 71.484581 -71.816628 21.513813 101.819031
77 101.539970 5.215704 5.435467 71.484581 -71.816628 21.513813 101.819031
[Rope4_Seg01]
76 0.000010 0.000038 -0.000114 -61.667976 67.979836 -50.899891 0.000121
77 0.000010 0.000038 -0.000114 -70.428535 68.616783 -60.325920 0.000121
[Rope4_Seg02]
76 139.999985 0.000060 0.000119 0.234611 -7.027012 3.714210 139.999985
77 139.999985 0.000060 0.000119 0.263962 -8.748553 -1.159193 139.999985
[Rope4_Seg03]
76 139.999924 0.000000 -0.000238 1.284579 -11.394521 6.194540 139.999924
77 139.999924 0.000000 -0.000238 1.090308 -12.154430 -1.581446 139.999924
[Rope4_Seg04]
76 139.999985 0.000000 0.000119 4.117858 -14.491781 13.255409 139.999985
77 139.999985 0.000000 0.000119 2.643177 -12.916959 -0.028236 139.999985
[Rope4_Seg05]
76 139.999802 -0.000060 -0.000119 9.310185 -22.517099 13.309372 139.999802
77 139.999802 -0.000060 -0.000119 5.066897 -16.073154 -1.333533 139.999802
[Rope4_Seg06]
76 139.999924 0.000000 0.000060 18.776659 -25.906729 9.526540 139.999924
77 139.999924 0.000000 0.000060 19.156132 -26.691719 -4.814387 139.999924
[Rope4_Seg07]
76 139.999802 0.000000 0.000000 16.245371 -9.486369 9.276384 139.999802
77 139.999802 0.000000 0.000000 76.445786 -20.292171 3.011382 139.999802
[Rope4_Seg08]
76 139.999924 0.000000 0.000119 6.856206 -2.768898 5.502642 139.999924
77 139.999924 0.000000 0.000119 28.722521 -0.534225 9.074425 139.999924
[Rope4_Seg09]
76 90.185791 0.000060 0.000060 -135.617828 2.228885 0.850567 90.185791
77 90.185791 0.000060 0.000060 -135.617828 2.228885 0.850567 90.185791
[L_rear_hand01]
76 101.696655 -8.392275 -7.654577 -12.874829 -36.868488 107.832764 102.329041
77 101.696655 -8.392275 -7.654577 -12.874829 -36.868488 107.832764 102.329041
[L_rear_hand02]
76 102.726799 -1.568258 5.773216 71.484581 71.816628 158.486160 102.900848
77 102.726799 -1.568258 5.773216 71.484581 71.816628 158.486160 102.900848
[L_rear_hand03]
76 104.552910 9.721220 -10.420293 -177.714203 -24.565960 -106.089035 105.519653
77 104.552910 9.721220 -10.420293 -177.714203 -24.565960 -106.089035 105.519653
